<svg xmlns="http://www.w3.org/2000/svg" version="1.1" xmlns:xlink="http://www.w3.org/1999/xlink" xmlns:svgjs="http://svgjs.dev/svgjs" width="1000" height="1000" viewBox="0 0 1000 1000"><rect width="1000" height="1000" fill="#000000"></rect><g transform="matrix(0.7,0,0,0.7,149.57575757575756,282.1265587044535)"><svg viewBox="0 0 396 247" data-background-color="#89939e" preserveAspectRatio="xMidYMid meet" height="623" width="1000" xmlns="http://www.w3.org/2000/svg" xmlns:xlink="http://www.w3.org/1999/xlink"><g id="tight-bounds" transform="matrix(1,0,0,1,0.2400000000000091,-0.09999999999999432)"><svg viewBox="0 0 395.52 247.2" height="247.2" width="395.52"><g><svg></svg></g><g><svg viewBox="0 0 395.52 247.2" height="247.2" width="395.52"><g transform="matrix(1,0,0,1,39.55199999999999,110.1761443204403)"><svg viewBox="0 0 316.416 26.8477113591194" height="26.8477113591194" width="316.416"><g><svg viewBox="0 0 316.416 26.8477113591194" height="26.8477113591194" width="316.416"><g><svg viewBox="0 0 316.416 26.8477113591194" height="26.8477113591194" width="316.416"><g><svg viewBox="0 0 316.416 26.8477113591194" height="26.8477113591194" width="316.416"><g><svg viewBox="0 0 316.416 26.8477113591194" height="26.8477113591194" width="316.416"><g><svg viewBox="0 0 316.416 26.8477113591194" height="26.8477113591194" width="316.416"><g transform="matrix(1,0,0,1,0,0)"><svg width="316.416" viewBox="3.75 -42.95000076293945 654.0399780273438 55.5" height="26.8477113591194" data-palette-color="#ffffff"><path d="M19.15-28.95Q22.9-28.95 25.8-27.28 28.7-25.6 30.33-22.25 31.95-18.9 31.95-14.05L31.95-14.05Q31.95-9.2 30.33-5.85 28.7-2.5 25.8-0.83 22.9 0.85 19.15 0.85L19.15 0.85Q15.2 0.85 11.45-2L11.45-2 11.45 0 3.75 0 3.75-42.3 11.45-42.3 11.45-26.05Q15.15-28.95 19.15-28.95L19.15-28.95ZM17.55-6Q20.7-6 22.33-8.05 23.95-10.1 23.95-14.05L23.95-14.05Q23.95-17.95 22.33-20 20.7-22.05 17.55-22.05L17.55-22.05Q14.55-22.05 11.45-19.8L11.45-19.8 11.45-8.3Q14.6-6 17.55-6L17.55-6ZM48.15-28.15Q53.4-28.15 56.1-26.68 58.8-25.2 59.7-22.75 60.6-20.3 60.6-16.5L60.6-16.5 60.6 0 52.9 0 52.9-2.4Q51.1-0.75 49.37-0.05 47.65 0.65 45.55 0.65L45.55 0.65Q40.95 0.65 38.25-1.88 35.55-4.4 35.55-8.85L35.55-8.85Q35.55-13.4 38.32-15.85 41.1-18.3 46-18.3L46-18.3Q49.95-18.3 52.9-16.8L52.9-16.8Q52.85-18.45 52.45-19.43 52.05-20.4 50.87-20.93 49.7-21.45 47.4-21.45L47.4-21.45 42.2-21.45 42.2-28.15 48.15-28.15ZM47.1-5.4Q49.9-5.4 52.9-7.9L52.9-7.9 52.9-11.45Q50.3-12.7 47.75-12.7L47.75-12.7Q45.75-12.7 44.55-11.8 43.35-10.9 43.35-8.95L43.35-8.95Q43.35-5.4 47.1-5.4L47.1-5.4ZM80 0.85Q73.15 0.8 69.5-3.13 65.84-7.05 65.84-14.1L65.84-14.1Q65.84-21.1 69.5-25 73.15-28.9 80-28.95L80-28.95Q82.45-28.95 84.22-28.63 86-28.3 87.95-27.55L87.95-27.55 87.95-20.5Q86.09-21.35 84.45-21.7 82.8-22.05 80.84-22.05L80.84-22.05Q77.2-22 75.55-19.98 73.9-17.95 73.9-14.15L73.9-14.15Q73.9-6.05 80.65-6L80.65-6Q84.09-6 87.8-8.25L87.8-8.25 90-1.8Q85.45 0.85 80 0.85L80 0.85ZM113.19 0L105.09-10.25 102.59-7.65 102.59 0 94.89 0 94.89-42.3 102.59-42.3 102.59-17.3 112.04-27.3 121.34-27.3 110.14-15.55 122.39 0 113.19 0ZM143.84-28.15L151.34-28.15 139.84 4.45Q138.74 7.6 137.34 9.35 135.94 11.1 134.09 11.83 132.24 12.55 129.49 12.55L129.49 12.55Q127.09 12.55 125.14 11.9L125.14 11.9 125.14 5.3Q126.64 5.7 128.19 5.7L128.19 5.7Q130.14 5.7 131.32 4.9 132.49 4.1 133.29 1.8L133.29 1.8 133.89 0.05 124.09-28.15 131.99-28.15 137.64-10.6 143.84-28.15ZM166.49-28.15Q171.74-28.15 174.44-26.68 177.14-25.2 178.04-22.75 178.94-20.3 178.94-16.5L178.94-16.5 178.94 0 171.24 0 171.24-2.4Q169.44-0.75 167.71-0.05 165.99 0.65 163.89 0.65L163.89 0.65Q159.29 0.65 156.59-1.88 153.89-4.4 153.89-8.85L153.89-8.85Q153.89-13.4 156.66-15.85 159.44-18.3 164.34-18.3L164.34-18.3Q168.29-18.3 171.24-16.8L171.24-16.8Q171.19-18.45 170.79-19.43 170.39-20.4 169.21-20.93 168.04-21.45 165.74-21.45L165.74-21.45 160.54-21.45 160.54-28.15 166.49-28.15ZM165.44-5.4Q168.24-5.4 171.24-7.9L171.24-7.9 171.24-11.45Q168.64-12.7 166.09-12.7L166.09-12.7Q164.09-12.7 162.89-11.8 161.69-10.9 161.69-8.95L161.69-8.95Q161.69-5.4 165.44-5.4L165.44-5.4ZM201.49-28.75L202.64-28.75 202.64-21.85 201.49-21.85Q197.54-21.85 193.64-18.95L193.64-18.95 193.64 0 185.94 0 185.94-28.15 193.64-28.15 193.64-25.45Q197.49-28.75 201.49-28.75L201.49-28.75ZM226.68-42.3L234.38-42.3 234.38 0 226.68 0 226.68-2Q222.93 0.85 218.98 0.85L218.98 0.85Q215.23 0.85 212.33-0.83 209.43-2.5 207.78-5.85 206.13-9.2 206.13-14.05L206.13-14.05Q206.13-18.9 207.78-22.25 209.43-25.6 212.33-27.28 215.23-28.95 218.98-28.95L218.98-28.95Q222.98-28.95 226.68-26.05L226.68-26.05 226.68-42.3ZM220.53-6Q223.53-6 226.68-8.3L226.68-8.3 226.68-19.8Q223.58-22.05 220.53-22.05L220.53-22.05Q217.38-22.05 215.78-20 214.18-17.95 214.18-14.05L214.18-14.05Q214.18-10.1 215.78-8.05 217.38-6 220.53-6L220.53-6ZM264.48-36.1Q262.98-36.1 262.4-35.43 261.83-34.75 261.83-33L261.83-33 261.83-28.15 267.33-28.15 267.33-21.25 261.83-21.25 261.83 0 254.13 0 254.13-21.25 250.73-21.25 250.73-28.15 254.13-28.15 254.13-35.65Q254.13-42.95 262.48-42.95L262.48-42.95Q264.43-42.95 267.33-42.35L267.33-42.35 267.33-35.7Q266.03-36.1 264.48-36.1L264.48-36.1ZM282.73-28.15Q287.98-28.15 290.68-26.68 293.38-25.2 294.28-22.75 295.18-20.3 295.18-16.5L295.18-16.5 295.18 0 287.48 0 287.48-2.4Q285.68-0.75 283.95-0.05 282.23 0.65 280.13 0.65L280.13 0.65Q275.53 0.65 272.83-1.88 270.13-4.4 270.13-8.85L270.13-8.85Q270.13-13.4 272.9-15.85 275.68-18.3 280.58-18.3L280.58-18.3Q284.53-18.3 287.48-16.8L287.48-16.8Q287.43-18.45 287.03-19.43 286.63-20.4 285.45-20.93 284.28-21.45 281.98-21.45L281.98-21.45 276.78-21.45 276.78-28.15 282.73-28.15ZM281.68-5.4Q284.48-5.4 287.48-7.9L287.48-7.9 287.48-11.45Q284.88-12.7 282.33-12.7L282.33-12.7Q280.33-12.7 279.13-11.8 277.93-10.9 277.93-8.95L277.93-8.95Q277.93-5.4 281.68-5.4L281.68-5.4ZM317.92-28.75Q323.42-28.75 326.15-25.93 328.87-23.1 328.87-16.9L328.87-16.9 328.87 0 321.17 0 321.17-16.9Q321.17-19.4 320.07-20.63 318.97-21.85 316.27-21.85L316.27-21.85Q313.07-21.85 309.87-19.2L309.87-19.2 309.87 0 302.17 0 302.17-28.15 309.87-28.15 309.87-25.7Q313.57-28.75 317.92-28.75L317.92-28.75ZM351.87-20.45L345.47-20.45 345.47-9.35Q345.47-7.6 346.05-6.9 346.62-6.2 348.12-6.2L348.12-6.2Q349.72-6.2 351.17-6.6L351.17-6.6 351.17 0Q348.27 0.65 346.12 0.65L346.12 0.65Q341.82 0.65 339.8-1.2 337.77-3.05 337.77-6.7L337.77-6.7 337.77-20.45 333.97-20.45 333.97-27.3 337.77-27.3 337.77-36.8 345.47-36.8 345.47-27.3 351.87-27.3 351.87-20.45ZM367.67-28.15Q372.92-28.15 375.62-26.68 378.32-25.2 379.22-22.75 380.12-20.3 380.12-16.5L380.12-16.5 380.12 0 372.42 0 372.42-2.4Q370.62-0.75 368.89-0.05 367.17 0.65 365.07 0.65L365.07 0.65Q360.47 0.65 357.77-1.88 355.07-4.4 355.07-8.85L355.07-8.85Q355.07-13.4 357.84-15.85 360.62-18.3 365.52-18.3L365.52-18.3Q369.47-18.3 372.42-16.8L372.42-16.8Q372.37-18.45 371.97-19.43 371.57-20.4 370.39-20.93 369.22-21.45 366.92-21.45L366.92-21.45 361.72-21.45 361.72-28.15 367.67-28.15ZM366.62-5.4Q369.42-5.4 372.42-7.9L372.42-7.9 372.42-11.45Q369.82-12.7 367.27-12.7L367.27-12.7Q365.27-12.7 364.07-11.8 362.87-10.9 362.87-8.95L362.87-8.95Q362.87-5.4 366.62-5.4L366.62-5.4ZM397.27 0.85Q393.82 0.85 391.19 0.3 388.57-0.25 385.72-1.6L385.72-1.6 385.72-8.5Q388.47-6.95 391.29-6.28 394.12-5.6 397.27-5.6L397.27-5.6Q401.02-5.6 401.02-8.1L401.02-8.1Q401.02-9.1 400.42-9.65 399.82-10.2 398.52-10.5L398.52-10.5 394.07-11.45Q390.02-12.3 388.07-14.3 386.12-16.3 386.12-19.85L386.12-19.85Q386.12-28.95 397.52-28.95L397.52-28.95Q402.22-28.95 407.52-27.15L407.52-27.15 407.52-20.5Q405.57-21.4 402.99-21.95 400.42-22.5 397.87-22.5L397.87-22.5Q395.67-22.5 394.79-21.95 393.92-21.4 393.92-20.35L393.92-20.35Q393.92-19.45 394.47-19.03 395.02-18.6 396.22-18.3L396.22-18.3 400.67-17.35Q404.92-16.5 406.87-14.5 408.82-12.5 408.82-8.5L408.82-8.5Q408.82-3.85 405.69-1.5 402.57 0.85 397.27 0.85L397.27 0.85ZM431.71-28.15L439.21-28.15 427.71 4.45Q426.61 7.6 425.21 9.35 423.81 11.1 421.96 11.83 420.11 12.55 417.36 12.55L417.36 12.55Q414.96 12.55 413.01 11.9L413.01 11.9 413.01 5.3Q414.51 5.7 416.06 5.7L416.06 5.7Q418.01 5.7 419.19 4.9 420.36 4.1 421.16 1.8L421.16 1.8 421.76 0.05 411.96-28.15 419.86-28.15 425.51-10.6 431.71-28.15ZM466.56-36.1Q465.06-36.1 464.48-35.43 463.91-34.75 463.91-33L463.91-33 463.91-28.15 469.41-28.15 469.41-21.25 463.91-21.25 463.91 0 456.21 0 456.21-21.25 452.81-21.25 452.81-28.15 456.21-28.15 456.21-35.65Q456.21-42.95 464.56-42.95L464.56-42.95Q466.51-42.95 469.41-42.35L469.41-42.35 469.41-35.7Q468.11-36.1 466.56-36.1L466.56-36.1ZM487.46 0.85Q482.71 0.85 479.36-1.1 476.01-3.05 474.33-6.43 472.66-9.8 472.66-14.05L472.66-14.05Q472.66-18.25 474.33-21.63 476.01-25 479.36-26.98 482.71-28.95 487.46-28.95L487.46-28.95Q492.21-28.95 495.51-26.98 498.81-25 500.48-21.63 502.16-18.25 502.16-14.05L502.16-14.05Q502.16-9.8 500.48-6.43 498.81-3.05 495.51-1.1 492.21 0.85 487.46 0.85L487.46 0.85ZM487.46-5.75Q490.71-5.75 492.41-7.93 494.11-10.1 494.11-14.05L494.11-14.05Q494.11-17.95 492.41-20.13 490.71-22.3 487.46-22.3L487.46-22.3Q484.16-22.3 482.43-20.13 480.71-17.95 480.71-14.05L480.71-14.05Q480.71-10.15 482.43-7.95 484.16-5.75 487.46-5.75L487.46-5.75ZM520.95 0.85Q516.2 0.85 512.85-1.1 509.5-3.05 507.83-6.43 506.15-9.8 506.15-14.05L506.15-14.05Q506.15-18.25 507.83-21.63 509.5-25 512.85-26.98 516.2-28.95 520.95-28.95L520.95-28.95Q525.7-28.95 529-26.98 532.3-25 533.98-21.63 535.65-18.25 535.65-14.05L535.65-14.05Q535.65-9.8 533.98-6.43 532.3-3.05 529-1.1 525.7 0.85 520.95 0.85L520.95 0.85ZM520.95-5.75Q524.2-5.75 525.9-7.93 527.6-10.1 527.6-14.05L527.6-14.05Q527.6-17.95 525.9-20.13 524.2-22.3 520.95-22.3L520.95-22.3Q517.65-22.3 515.93-20.13 514.2-17.95 514.2-14.05L514.2-14.05Q514.2-10.15 515.93-7.95 517.65-5.75 520.95-5.75L520.95-5.75ZM557.15-20.45L550.75-20.45 550.75-9.35Q550.75-7.6 551.33-6.9 551.9-6.2 553.4-6.2L553.4-6.2Q555-6.2 556.45-6.6L556.45-6.6 556.45 0Q553.55 0.65 551.4 0.65L551.4 0.65Q547.1 0.65 545.08-1.2 543.05-3.05 543.05-6.7L543.05-6.7 543.05-20.45 539.25-20.45 539.25-27.3 543.05-27.3 543.05-36.8 550.75-36.8 550.75-27.3 557.15-27.3 557.15-20.45ZM577.95-28.95Q581.7-28.95 584.6-27.28 587.5-25.6 589.12-22.25 590.75-18.9 590.75-14.05L590.75-14.05Q590.75-9.2 589.12-5.85 587.5-2.5 584.6-0.83 581.7 0.85 577.95 0.85L577.95 0.85Q574 0.85 570.25-2L570.25-2 570.25 0 562.55 0 562.55-42.3 570.25-42.3 570.25-26.05Q573.95-28.95 577.95-28.95L577.95-28.95ZM576.35-6Q579.5-6 581.12-8.05 582.75-10.1 582.75-14.05L582.75-14.05Q582.75-17.95 581.12-20 579.5-22.05 576.35-22.05L576.35-22.05Q573.35-22.05 570.25-19.8L570.25-19.8 570.25-8.3Q573.4-6 576.35-6L576.35-6ZM606.94-28.15Q612.19-28.15 614.89-26.68 617.59-25.2 618.5-22.75 619.39-20.3 619.39-16.5L619.39-16.5 619.39 0 611.69 0 611.69-2.4Q609.89-0.75 608.17-0.05 606.44 0.65 604.34 0.65L604.34 0.65Q599.75 0.65 597.04-1.88 594.34-4.4 594.34-8.85L594.34-8.85Q594.34-13.4 597.12-15.85 599.89-18.3 604.79-18.3L604.79-18.3Q608.75-18.3 611.69-16.8L611.69-16.8Q611.64-18.45 611.25-19.43 610.84-20.4 609.67-20.93 608.5-21.45 606.19-21.45L606.19-21.45 601-21.45 601-28.15 606.94-28.15ZM605.89-5.4Q608.69-5.4 611.69-7.9L611.69-7.9 611.69-11.45Q609.09-12.7 606.54-12.7L606.54-12.7Q604.54-12.7 603.34-11.8 602.14-10.9 602.14-8.95L602.14-8.95Q602.14-5.4 605.89-5.4L605.89-5.4ZM634.74 0.65Q626.39 0.65 626.39-6.65L626.39-6.65 626.39-42.3 634.09-42.3 634.09-9.35Q634.09-7.55 634.67-6.88 635.24-6.2 636.74-6.2L636.74-6.2Q638.29-6.2 639.59-6.6L639.59-6.6 639.59 0.05Q636.69 0.65 634.74 0.65L634.74 0.65ZM652.94 0.65Q644.59 0.65 644.59-6.65L644.59-6.65 644.59-42.3 652.29-42.3 652.29-9.35Q652.29-7.55 652.86-6.88 653.44-6.2 654.94-6.2L654.94-6.2Q656.49-6.2 657.79-6.6L657.79-6.6 657.79 0.05Q654.89 0.65 652.94 0.65L652.94 0.65Z" opacity="1" transform="matrix(1,0,0,1,0,0)" fill="#ffffff" class="undefined-text-0" data-fill-palette-color="primary" id="text-0"></path></svg></g></svg></g></svg></g></svg></g></svg></g></svg></g></svg></g><g mask="url(#e7daf0b4-04fd-4988-aadc-3c0182d731d1)"><g transform="matrix(4.086115915569241, 0, 0, 4.086115915569241, 13.884783799384138, 1)"><svg xmlns:x="http://ns.adobe.com/Extensibility/1.0/" xmlns:i="http://ns.adobe.com/AdobeIllustrator/10.0/" xmlns:graph="http://ns.adobe.com/Graphs/1.0/" xmlns="http://www.w3.org/2000/svg" xmlns:xlink="http://www.w3.org/1999/xlink" version="1.1" x="0" y="0" viewBox="5 19.99560546875 90 60.008087158203125" enable-background="new 0 0 100 100" xml:space="preserve" height="60.008087158203125" width="90" class="icon-none" data-fill-palette-color="accent" id="none"><g fill="#ffffff" data-fill-palette-color="accent"><path fill="#ffffff" d="M95 35.666l-0.204 0.613c-0.819 9.354-4.367 17.546-10.648 24.575-7.101 7.714-15.601 13.178-25.492 16.383-5.94 1.776-11.986 2.697-18.126 2.764-7.034 0.071-13.758-1.26-20.172-3.993C14.483 73.483 9.536 69.798 5.51 64.95L5 64.438l0.204-0.616c0.682-9.419 4.199-17.641 10.542-24.677 7.034-7.71 15.565-13.136 25.603-16.279 5.799-1.845 11.841-2.795 18.122-2.868 6.963-0.066 13.651 1.229 20.07 3.892 5.939 2.529 10.954 6.281 15.052 11.263L95 35.666zM25.168 68.841c-0.611-3.754-1.467-7.403-2.556-10.956-1.028-3.139-2.224-6.144-3.588-9.012-5.121 3.824-8.802 8.704-11.057 14.644C13.089 66.93 18.82 68.701 25.168 68.841zM9.606 54.606c2.388-3.071 5.152-5.8 8.292-8.19-0.682-1.158-1.328-2.252-1.944-3.277C13.226 46.62 11.104 50.445 9.606 54.606zM25.89 75.291c-0.07-1.296-0.173-2.523-0.31-3.686-3.827-0.206-7.544-0.887-11.158-2.049C17.898 72.015 21.722 73.929 25.89 75.291zM26.705 40.477c2.388-1.434 4.814-2.662 7.273-3.686-0.483-0.337-0.962-0.512-1.436-0.512-0.615-0.066-0.854-0.374-0.718-0.921 0.066-0.477 0.372-0.683 0.922-0.614 1.023 0.138 2.011 0.583 2.972 1.329 0.408-0.271 0.887-0.512 1.431-0.715-0.407-0.133-0.783-0.206-1.125-0.206-0.479-0.133-0.718-0.438-0.718-0.922 0.067-0.476 0.373-0.68 0.922-0.613 0.952 0.138 1.878 0.512 2.764 1.127 0.412-0.272 0.851-0.476 1.329-0.615-0.271-0.066-0.51-0.102-0.713-0.102-0.483-0.134-0.718-0.441-0.718-0.922 0.133-0.409 0.407-0.615 0.819-0.615 0.886 0.139 1.772 0.447 2.662 0.921 0.475-0.133 0.922-0.271 1.334-0.407-0.275-0.066-0.483-0.104-0.616-0.104-0.549-0.066-0.788-0.372-0.718-0.921 0.133-0.477 0.443-0.681 0.922-0.614 0.886 0.138 1.74 0.445 2.56 0.922 0.475-0.133 0.953-0.272 1.436-0.41-0.274-0.066-0.514-0.133-0.718-0.203-0.412 0-0.615-0.272-0.615-0.819 0.066-0.41 0.341-0.616 0.819-0.616 0.957 0.14 1.874 0.483 2.764 1.025 0.479-0.133 1.023-0.272 1.64-0.409-0.412-0.206-0.754-0.309-1.028-0.309-0.474-0.066-0.678-0.339-0.611-0.819 0.066-0.476 0.342-0.68 0.819-0.613 1.09 0.138 2.113 0.582 3.07 1.331 0.545-0.206 1.16-0.339 1.847-0.41-0.482-0.339-1.027-0.542-1.639-0.615-0.479 0-0.687-0.271-0.616-0.817 0.138-0.409 0.408-0.615 0.82-0.615 1.293 0.139 2.458 0.687 3.481 1.639 1.979-0.339 3.991-0.613 6.037-0.819-0.27-1.976-0.372-3.993-0.306-6.042-1.227-0.133-2.423-0.169-3.583-0.103-5.94 0-11.738 0.922-17.404 2.765C35.17 27.544 28.99 30.889 23.533 35.46 24.623 37.099 25.682 38.773 26.705 40.477zM35.923 68.635c6.348-0.613 12.593-1.873 18.737-3.787 6.144-1.978 12.044-4.573 17.714-7.782-2.596-4.368-4.607-8.908-6.042-13.619-1.228-4.024-2.117-8.018-2.662-11.979-1.843 0.137-3.654 0.343-5.427 0.613-0.07 1.097-0.31 2.119-0.718 3.072-0.203 0.206-0.407 0.343-0.61 0.409-0.209-0.066-0.346-0.066-0.412 0-0.479-0.27-0.616-0.645-0.412-1.125 0.341-0.615 0.58-1.296 0.718-2.049-0.753 0.14-1.471 0.309-2.148 0.512 0.066 1.163-0.142 2.29-0.616 3.38-0.203 0.204-0.442 0.344-0.718 0.41h-0.306c-0.478-0.272-0.615-0.645-0.411-1.128 0.411-0.746 0.615-1.565 0.615-2.456-0.753 0.138-1.436 0.306-2.046 0.512 0.133 1.3-0.103 2.561-0.718 3.789-0.208 0.275-0.443 0.408-0.718 0.408h-0.306c-0.407-0.271-0.549-0.645-0.407-1.125 0.474-0.887 0.678-1.772 0.611-2.662-0.687 0.137-1.364 0.343-2.047 0.613 0.138 1.296-0.102 2.631-0.718 3.993-0.208 0.206-0.412 0.308-0.615 0.308-0.138 0-0.271-0.031-0.408-0.102-0.407-0.206-0.549-0.543-0.407-1.025 0.545-0.884 0.749-1.808 0.611-2.765-0.274 0.073-0.51 0.14-0.713 0.206-0.483 0.138-0.926 0.306-1.334 0.512 0.204 1.3 0 2.631-0.615 3.993-0.204 0.204-0.447 0.308-0.718 0.308-0.137 0-0.239-0.03-0.306-0.104-0.479-0.204-0.615-0.543-0.412-1.023 0.479-0.886 0.683-1.771 0.616-2.662-0.753 0.138-1.436 0.379-2.047 0.718 0.204 1.3-0.035 2.596-0.718 3.889-0.066 0.14-0.274 0.242-0.61 0.309-0.209 0-0.346-0.031-0.412-0.103-0.412-0.206-0.514-0.542-0.311-1.023 0.341-0.819 0.514-1.67 0.514-2.56-0.682 0.203-1.328 0.512-1.944 0.921 0.066 1.163-0.173 2.354-0.718 3.584-0.137 0.203-0.376 0.308-0.713 0.308-0.142 0-0.243-0.031-0.311-0.104-0.411-0.203-0.514-0.542-0.305-1.022 0.27-0.681 0.442-1.397 0.509-2.151-2.596 1.097-5.085 2.361-7.473 3.79 1.905 3.686 3.544 7.576 4.912 11.676C34.386 59.149 35.374 63.857 35.923 68.635zM77.082 64.13c-1.227-1.565-2.32-3.174-3.277-4.812-5.869 3.349-11.946 6.011-18.224 7.986-6.418 2.049-12.903 3.415-19.454 4.096 0.066 1.845 0.102 3.789 0.102 5.838 1.436 0.138 2.866 0.208 4.301 0.208 5.869-0.07 11.672-0.992 17.404-2.769C64.896 72.358 71.279 68.841 77.082 64.13zM73.601 24.709c0.066 1.229 0.239 2.494 0.514 3.788 3.823 0.139 7.642 0.788 11.469 1.946C81.897 27.853 77.902 25.938 73.601 24.709zM92.032 36.587c-5.324-3.481-11.193-5.289-17.612-5.428 0.545 3.005 1.294 6.011 2.255 9.012 1.156 3.686 2.662 7.304 4.501 10.853C86.229 47.205 89.844 42.393 92.032 36.587zM90.394 45.495c-2.393 2.938-5.019 5.602-7.885 7.986 0.545 0.957 1.16 1.944 1.843 2.97C86.876 53.041 88.892 49.387 90.394 45.495z" data-fill-palette-color="accent"></path></g></svg></g></g></svg></g><defs><mask id="e7daf0b4-04fd-4988-aadc-3c0182d731d1"><rect width="640" height="400" fill="white"></rect><rect width="348.05760000000004" height="39.52391197275034" fill="black" x="145.97119999999998" y="180.23804401362483" id="transform-me" transform="matrix(1,0,0,1,-122.24000000000001,-76.4)"></rect></mask></defs></svg><rect width="395.52" height="247.2" fill="none" stroke="none" visibility="hidden"></rect></g></svg></g></svg>