<svg width="30" height="30" viewBox="0 0 30 30" fill="none" xmlns="http://www.w3.org/2000/svg">
<path d="M27.7854 0H2.21458C0.991667 0 0 0.991667 0 2.21458V27.7854C0 29.0083 0.991667 30 2.21458 30H27.7854C29.0083 30 30 29.0083 30 27.7854V2.21458C30 0.991667 29.0083 0 27.7854 0ZM8.94167 25.5583H4.43125V11.2292H8.94167V25.5562V25.5583ZM6.6875 9.24583C5.25208 9.24583 4.0875 8.15208 4.0875 6.65625C4.0875 5.16042 5.25208 4.06667 6.6875 4.06667C8.12292 4.06667 9.2875 5.16042 9.2875 6.65625C9.2875 8.15208 8.12292 9.24583 6.6875 9.24583ZM25.5708 25.5708H21.0604V17.7458C21.0604 15.4375 20.0792 14.725 18.8125 14.725C17.475 14.725 16.1625 15.7312 16.1625 17.8042V25.5729H11.6521V11.2396H15.9896V13.225H16.0479C16.4833 12.3438 18.0083 10.8375 20.3354 10.8375C22.8521 10.8375 25.5708 12.3313 25.5708 16.7062V25.5688V25.5708Z" fill="#F0F0F0"/>
</svg>
